<svg width="31" height="26" viewBox="0 0 31 26" fill="none" xmlns="http://www.w3.org/2000/svg">
<path d="M20.3335 23.75V21.3333C20.3335 20.0515 19.8243 18.8221 18.9178 17.9157C18.0114 17.0092 16.782 16.5 15.5002 16.5H7.04183C5.75995 16.5 4.53057 17.0092 3.62415 17.9157C2.71772 18.8221 2.2085 20.0515 2.2085 21.3333V23.75" stroke="white" stroke-width="3" stroke-linecap="round" stroke-linejoin="round"/>
<path d="M11.2708 11.6667C13.9402 11.6667 16.1042 9.50271 16.1042 6.83333C16.1042 4.16396 13.9402 2 11.2708 2C8.60146 2 6.4375 4.16396 6.4375 6.83333C6.4375 9.50271 8.60146 11.6667 11.2708 11.6667Z" stroke="white" stroke-width="3" stroke-linecap="round" stroke-linejoin="round"/>
<path d="M21.5415 11.6667L23.9582 14.0833L28.7915 9.25" stroke="white" stroke-width="3" stroke-linecap="round" stroke-linejoin="round"/>
</svg>
